<svg xmlns="http://www.w3.org/2000/svg" viewBox="0 0 820 470" width="820" height="470" role="img" aria-labelledby="t d">
<title id="t">Threat budget versus income, waves 1 to 160</title><desc id="d">Log-scale line chart. B(w) rises from 20 to 1.2e19; cumulative income reaches 3.2M by wave 160; maximum passive income falls with c(w) after wave 50.</desc>
<style>
  .bg{fill:#fcfcfb} .t1{fill:#0b0b0b} .t2{fill:#52514e} .tm{fill:#898781}
  .grid{stroke:#e1e0d9;stroke-width:1} .axis{stroke:#c3c2b7;stroke-width:1}
  .band{fill:#2a78d6;fill-opacity:.08} .band2{fill:#eb6834;fill-opacity:.08} .limit{stroke:#d03b3b;stroke-width:1.5;stroke-dasharray:4 3}
  .s1{stroke:#2a78d6} .s2{stroke:#eb6834} .s3{stroke:#1baf7a} .s4{stroke:#eda100} .s5{stroke:#e87ba4}
  .d1{fill:#2a78d6} .d2{fill:#eb6834} .d3{fill:#1baf7a} .d4{fill:#eda100} .d5{fill:#e87ba4}
  polyline{fill:none} .ring{stroke:#fcfcfb} .bgfill{fill:#fcfcfb} .hit{fill:transparent;stroke:none}
  text{font-family:system-ui,-apple-system,"Segoe UI",sans-serif}
  @media (prefers-color-scheme: dark){
    .bg{fill:#1a1a19} .t1{fill:#ffffff} .t2{fill:#c3c2b7}
    .grid{stroke:#2c2c2a} .axis{stroke:#383835} .ring{stroke:#1a1a19} .bgfill{fill:#1a1a19}
    .s1{stroke:#3987e5} .s2{stroke:#d95926} .s3{stroke:#199e70} .s4{stroke:#c98500} .s5{stroke:#d55181}
    .d1{fill:#3987e5} .d2{fill:#d95926} .d3{fill:#199e70} .d4{fill:#c98500} .d5{fill:#d55181}
  }</style>
<rect class="bg" x="0" y="0" width="820" height="470" rx="8"/>
<text class="t1" x="64.0" y="24.0" font-size="15" text-anchor="start" font-weight="600">Threat grows past every income source after the surge</text><text class="t2" x="64.0" y="42.0" font-size="12" text-anchor="start">Credits or mass per wave, log scale. Pop income assumes every shell of the wave is destroyed.</text><line class="grid" x1="64.0" y1="426.0" x2="650.0" y2="426.0"/><text class="tm" x="56.0" y="430.0" font-size="11" text-anchor="end">10</text><line class="grid" x1="64.0" y1="367.9" x2="650.0" y2="367.9"/><text class="tm" x="56.0" y="371.9" font-size="11" text-anchor="end">10k</text><line class="grid" x1="64.0" y1="309.8" x2="650.0" y2="309.8"/><text class="tm" x="56.0" y="313.8" font-size="11" text-anchor="end">1e7</text><line class="grid" x1="64.0" y1="251.7" x2="650.0" y2="251.7"/><text class="tm" x="56.0" y="255.7" font-size="11" text-anchor="end">1e10</text><line class="grid" x1="64.0" y1="193.6" x2="650.0" y2="193.6"/><text class="tm" x="56.0" y="197.6" font-size="11" text-anchor="end">1e13</text><line class="grid" x1="64.0" y1="135.5" x2="650.0" y2="135.5"/><text class="tm" x="56.0" y="139.5" font-size="11" text-anchor="end">1e16</text><line class="grid" x1="64.0" y1="77.4" x2="650.0" y2="77.4"/><text class="tm" x="56.0" y="81.4" font-size="11" text-anchor="end">1e19</text><line class="grid" x1="134.0" y1="58.0" x2="134.0" y2="426.0"/><text class="tm" x="134.0" y="444.0" font-size="11" text-anchor="middle">20</text><line class="grid" x1="207.7" y1="58.0" x2="207.7" y2="426.0"/><text class="tm" x="207.7" y="444.0" font-size="11" text-anchor="middle">40</text><line class="grid" x1="281.4" y1="58.0" x2="281.4" y2="426.0"/><text class="tm" x="281.4" y="444.0" font-size="11" text-anchor="middle">60</text><line class="grid" x1="355.2" y1="58.0" x2="355.2" y2="426.0"/><text class="tm" x="355.2" y="444.0" font-size="11" text-anchor="middle">80</text><line class="grid" x1="428.9" y1="58.0" x2="428.9" y2="426.0"/><text class="tm" x="428.9" y="444.0" font-size="11" text-anchor="middle">100</text><line class="grid" x1="502.6" y1="58.0" x2="502.6" y2="426.0"/><text class="tm" x="502.6" y="444.0" font-size="11" text-anchor="middle">120</text><line class="grid" x1="576.3" y1="58.0" x2="576.3" y2="426.0"/><text class="tm" x="576.3" y="444.0" font-size="11" text-anchor="middle">140</text><line class="grid" x1="650.0" y1="58.0" x2="650.0" y2="426.0"/><text class="tm" x="650.0" y="444.0" font-size="11" text-anchor="middle">160</text><text class="tm" x="64.0" y="444.0" font-size="11" text-anchor="middle">1</text><text class="tm" x="357.0" y="462.0" font-size="11" text-anchor="middle">wave</text><line class="axis" x1="64.0" y1="426.0" x2="650.0" y2="426.0"/><line class="axis" x1="299.9" y1="58" x2="299.9" y2="426" stroke-dasharray="3 3"/><text class="tm" x="303.9" y="70.0" font-size="10" text-anchor="start">surge from 65</text><line class="axis" x1="244.6" y1="58" x2="244.6" y2="426" stroke-dasharray="3 3"/><text class="tm" x="240.6" y="70.0" font-size="10" text-anchor="end">c(w) falls from 50</text><polyline class="s1" fill="none" stroke-width="2" stroke-linejoin="round" points="64.0,420.2 67.7,415.0 71.4,411.9 75.1,409.5 78.7,407.5 82.4,405.9 86.1,404.4 89.8,403.1 93.5,401.8 97.2,400.7 100.9,399.6 104.5,398.6 108.2,397.6 111.9,396.7 115.6,395.8 119.3,395.0 123.0,394.1 126.7,393.3 130.3,392.5 134.0,391.8 137.7,391.0 141.4,390.3 145.1,389.5 148.8,388.8 152.5,388.1 156.1,387.4 159.8,386.8 163.5,386.1 167.2,385.4 170.9,384.8 174.6,384.1 178.3,383.5 181.9,382.9 185.6,382.2 189.3,381.6 193.0,381.0 196.7,380.4 200.4,379.8 204.1,379.2 207.7,378.6 211.4,378.0 215.1,377.4 218.8,376.8 222.5,376.3 226.2,375.7 229.8,375.1 233.5,374.6 237.2,374.0 240.9,373.4 244.6,372.9 248.3,372.3 252.0,371.8 255.6,371.2 259.3,370.7 263.0,370.1 266.7,369.6 270.4,369.0 274.1,368.5 277.8,367.9 281.4,367.4 285.1,366.9 288.8,366.3 292.5,365.8 296.2,365.3 299.9,364.8 303.6,364.2 307.2,363.6 310.9,362.9 314.6,362.2 318.3,361.5 322.0,360.7 325.7,359.8 329.4,358.9 333.0,357.9 336.7,356.9 340.4,355.8 344.1,354.7 347.8,353.5 351.5,352.2 355.2,351.0 358.8,349.6 362.5,348.2 366.2,346.8 369.9,345.3 373.6,343.7 377.3,342.1 381.0,340.5 384.6,338.8 388.3,337.0 392.0,335.2 395.7,333.3 399.4,331.4 403.1,329.4 406.8,327.4 410.4,325.3 414.1,323.2 417.8,321.0 421.5,318.7 425.2,316.4 428.9,314.1 432.6,311.7 436.2,309.2 439.9,306.7 443.6,304.2 447.3,301.6 451.0,298.9 454.7,296.2 458.4,293.4 462.0,290.6 465.7,287.7 469.4,284.8 473.1,281.8 476.8,278.7 480.5,275.6 484.2,272.5 487.8,269.3 491.5,266.0 495.2,262.7 498.9,259.4 502.6,256.0 506.3,252.5 509.9,249.0 513.6,245.4 517.3,241.8 521.0,238.1 524.7,234.4 528.4,230.6 532.1,226.7 535.7,222.8 539.4,218.9 543.1,214.9 546.8,210.8 550.5,206.7 554.2,202.6 557.9,198.4 561.5,194.1 565.2,189.8 568.9,185.4 572.6,181.0 576.3,176.5 580.0,172.0 583.7,167.4 587.3,162.7 591.0,158.0 594.7,153.3 598.4,148.5 602.1,143.6 605.8,138.7 609.5,133.8 613.1,128.7 616.8,123.7 620.5,118.6 624.2,113.4 627.9,108.1 631.6,102.9 635.3,97.5 638.9,92.1 642.6,86.7 646.3,81.2 650.0,75.6"/><circle class="hit" cx="64.0" cy="420.2" r="6"><title>Threat budget B(w), wave 1: 20</title></circle><circle class="hit" cx="78.7" cy="407.5" r="6"><title>Threat budget B(w), wave 5: 90</title></circle><circle class="hit" cx="97.2" cy="400.7" r="6"><title>Threat budget B(w), wave 10: 203</title></circle><circle class="hit" cx="115.6" cy="395.8" r="6"><title>Threat budget B(w), wave 15: 361</title></circle><circle class="hit" cx="134.0" cy="391.8" r="6"><title>Threat budget B(w), wave 20: 586</title></circle><circle class="hit" cx="152.5" cy="388.1" r="6"><title>Threat budget B(w), wave 25: 902</title></circle><circle class="hit" cx="170.9" cy="384.8" r="6"><title>Threat budget B(w), wave 30: 1.3k</title></circle><circle class="hit" cx="189.3" cy="381.6" r="6"><title>Threat budget B(w), wave 35: 2.0k</title></circle><circle class="hit" cx="207.7" cy="378.6" r="6"><title>Threat budget B(w), wave 40: 2.8k</title></circle><circle class="hit" cx="226.2" cy="375.7" r="6"><title>Threat budget B(w), wave 45: 4.0k</title></circle><circle class="hit" cx="244.6" cy="372.9" r="6"><title>Threat budget B(w), wave 50: 5.5k</title></circle><circle class="hit" cx="263.0" cy="370.1" r="6"><title>Threat budget B(w), wave 55: 7.7k</title></circle><circle class="hit" cx="281.4" cy="367.4" r="6"><title>Threat budget B(w), wave 60: 11k</title></circle><circle class="hit" cx="299.9" cy="364.8" r="6"><title>Threat budget B(w), wave 65: 15k</title></circle><circle class="hit" cx="318.3" cy="361.5" r="6"><title>Threat budget B(w), wave 70: 21k</title></circle><circle class="hit" cx="336.7" cy="356.9" r="6"><title>Threat budget B(w), wave 75: 37k</title></circle><circle class="hit" cx="355.2" cy="351.0" r="6"><title>Threat budget B(w), wave 80: 75k</title></circle><circle class="hit" cx="373.6" cy="343.7" r="6"><title>Threat budget B(w), wave 85: 177k</title></circle><circle class="hit" cx="392.0" cy="335.2" r="6"><title>Threat budget B(w), wave 90: 489k</title></circle><circle class="hit" cx="410.4" cy="325.3" r="6"><title>Threat budget B(w), wave 95: 1.6M</title></circle><circle class="hit" cx="428.9" cy="314.1" r="6"><title>Threat budget B(w), wave 100: 6.0M</title></circle><circle class="hit" cx="447.3" cy="301.6" r="6"><title>Threat budget B(w), wave 105: 26.6M</title></circle><circle class="hit" cx="465.7" cy="287.7" r="6"><title>Threat budget B(w), wave 110: 138.4M</title></circle><circle class="hit" cx="484.2" cy="272.5" r="6"><title>Threat budget B(w), wave 115: 842.5M</title></circle><circle class="hit" cx="502.6" cy="256.0" r="6"><title>Threat budget B(w), wave 120: 6.0G</title></circle><circle class="hit" cx="521.0" cy="238.1" r="6"><title>Threat budget B(w), wave 125: 50.3G</title></circle><circle class="hit" cx="539.4" cy="218.9" r="6"><title>Threat budget B(w), wave 130: 492.7G</title></circle><circle class="hit" cx="557.9" cy="198.4" r="6"><title>Threat budget B(w), wave 135: 5.7T</title></circle><circle class="hit" cx="576.3" cy="176.5" r="6"><title>Threat budget B(w), wave 140: 7.6e13</title></circle><circle class="hit" cx="594.7" cy="153.3" r="6"><title>Threat budget B(w), wave 145: 1.2e15</title></circle><circle class="hit" cx="613.1" cy="128.7" r="6"><title>Threat budget B(w), wave 150: 2.2e16</title></circle><circle class="hit" cx="631.6" cy="102.9" r="6"><title>Threat budget B(w), wave 155: 4.8e17</title></circle><circle class="hit" cx="650.0" cy="75.6" r="6"><title>Threat budget B(w), wave 160: 1.2e19</title></circle><polyline class="s2" fill="none" stroke-width="2" stroke-linejoin="round" points="64.0,388.4 67.7,386.4 71.4,384.6 75.1,383.1 78.7,381.7 82.4,380.4 86.1,379.3 89.8,378.2 93.5,377.1 97.2,376.0 100.9,375.2 104.5,374.3 108.2,373.4 111.9,372.7 115.6,371.9 119.3,371.1 123.0,370.4 126.7,369.7 130.3,368.9 134.0,368.3 137.7,367.6 141.4,366.9 145.1,366.3 148.8,365.6 152.5,364.9 156.1,364.3 159.8,363.6 163.5,362.9 167.2,362.2 170.9,361.5 174.6,360.9 178.3,360.3 181.9,359.6 185.6,359.0 189.3,358.4 193.0,357.8 196.7,357.3 200.4,356.6 204.1,356.0 207.7,355.4 211.4,354.9 215.1,354.3 218.8,353.8 222.5,353.3 226.2,352.8 229.8,352.3 233.5,351.7 237.2,351.2 240.9,350.7 244.6,350.3 248.3,349.9 252.0,349.4 255.6,349.0 259.3,348.5 263.0,348.1 266.7,347.7 270.4,347.4 274.1,347.1 277.8,346.8 281.4,346.5 285.1,346.2 288.8,345.9 292.5,345.6 296.2,345.3 299.9,345.1 303.6,344.8 307.2,344.5 310.9,344.2 314.6,344.0 318.3,343.8 322.0,343.5 325.7,343.2 329.4,343.0 333.0,342.7 336.7,342.4 340.4,342.1 344.1,341.8 347.8,341.5 351.5,341.1 355.2,340.8 358.8,340.5 362.5,340.1 366.2,339.7 369.9,339.3 373.6,339.0 377.3,338.5 381.0,338.0 384.6,337.5 388.3,337.0 392.0,336.3 395.7,335.9 399.4,335.3 403.1,334.6 406.8,333.8 410.4,333.0 414.1,332.2 417.8,331.4 421.5,330.5 425.2,329.7 428.9,329.2 432.6,328.6 436.2,328.0 439.9,327.6 443.6,327.1 447.3,326.7 451.0,326.3 454.7,326.0 458.4,325.6 462.0,325.3 465.7,325.0 469.4,324.8 473.1,324.5 476.8,324.3 480.5,324.1 484.2,323.9 487.8,323.7 491.5,323.4 495.2,323.2 498.9,323.0 502.6,322.9 506.3,322.8 509.9,322.6 513.6,322.4 517.3,322.3 521.0,322.1 524.7,322.0 528.4,321.8 532.1,321.7 535.7,321.6 539.4,321.5 543.1,321.4 546.8,321.3 550.5,321.2 554.2,321.1 557.9,321.0 561.5,320.9 565.2,320.8 568.9,320.7 572.6,320.6 576.3,320.5 580.0,320.5 583.7,320.4 587.3,320.3 591.0,320.2 594.7,320.2 598.4,320.1 602.1,320.0 605.8,320.0 609.5,319.9 613.1,319.9 616.8,319.8 620.5,319.7 624.2,319.7 627.9,319.6 631.6,319.6 635.3,319.5 638.9,319.5 642.6,319.4 646.3,319.4 650.0,319.3"/><circle class="hit" cx="64.0" cy="388.4" r="6"><title>Cumulative income, wave 1: 871</title></circle><circle class="hit" cx="78.7" cy="381.7" r="6"><title>Cumulative income, wave 5: 1.9k</title></circle><circle class="hit" cx="97.2" cy="376.0" r="6"><title>Cumulative income, wave 10: 3.8k</title></circle><circle class="hit" cx="115.6" cy="371.9" r="6"><title>Cumulative income, wave 15: 6.2k</title></circle><circle class="hit" cx="134.0" cy="368.3" r="6"><title>Cumulative income, wave 20: 9.6k</title></circle><circle class="hit" cx="152.5" cy="364.9" r="6"><title>Cumulative income, wave 25: 14k</title></circle><circle class="hit" cx="170.9" cy="361.5" r="6"><title>Cumulative income, wave 30: 21k</title></circle><circle class="hit" cx="189.3" cy="358.4" r="6"><title>Cumulative income, wave 35: 31k</title></circle><circle class="hit" cx="207.7" cy="355.4" r="6"><title>Cumulative income, wave 40: 44k</title></circle><circle class="hit" cx="226.2" cy="352.8" r="6"><title>Cumulative income, wave 45: 60k</title></circle><circle class="hit" cx="244.6" cy="350.3" r="6"><title>Cumulative income, wave 50: 81k</title></circle><circle class="hit" cx="263.0" cy="348.1" r="6"><title>Cumulative income, wave 55: 105k</title></circle><circle class="hit" cx="281.4" cy="346.5" r="6"><title>Cumulative income, wave 60: 128k</title></circle><circle class="hit" cx="299.9" cy="345.1" r="6"><title>Cumulative income, wave 65: 151k</title></circle><circle class="hit" cx="318.3" cy="343.8" r="6"><title>Cumulative income, wave 70: 176k</title></circle><circle class="hit" cx="336.7" cy="342.4" r="6"><title>Cumulative income, wave 75: 207k</title></circle><circle class="hit" cx="355.2" cy="340.8" r="6"><title>Cumulative income, wave 80: 250k</title></circle><circle class="hit" cx="373.6" cy="339.0" r="6"><title>Cumulative income, wave 85: 312k</title></circle><circle class="hit" cx="392.0" cy="336.3" r="6"><title>Cumulative income, wave 90: 426k</title></circle><circle class="hit" cx="410.4" cy="333.0" r="6"><title>Cumulative income, wave 95: 631k</title></circle><circle class="hit" cx="428.9" cy="329.2" r="6"><title>Cumulative income, wave 100: 999k</title></circle><circle class="hit" cx="447.3" cy="326.7" r="6"><title>Cumulative income, wave 105: 1.3M</title></circle><circle class="hit" cx="465.7" cy="325.0" r="6"><title>Cumulative income, wave 110: 1.6M</title></circle><circle class="hit" cx="484.2" cy="323.9" r="6"><title>Cumulative income, wave 115: 1.9M</title></circle><circle class="hit" cx="502.6" cy="322.9" r="6"><title>Cumulative income, wave 120: 2.1M</title></circle><circle class="hit" cx="521.0" cy="322.1" r="6"><title>Cumulative income, wave 125: 2.3M</title></circle><circle class="hit" cx="539.4" cy="321.5" r="6"><title>Cumulative income, wave 130: 2.5M</title></circle><circle class="hit" cx="557.9" cy="321.0" r="6"><title>Cumulative income, wave 135: 2.6M</title></circle><circle class="hit" cx="576.3" cy="320.5" r="6"><title>Cumulative income, wave 140: 2.8M</title></circle><circle class="hit" cx="594.7" cy="320.2" r="6"><title>Cumulative income, wave 145: 2.9M</title></circle><circle class="hit" cx="613.1" cy="319.9" r="6"><title>Cumulative income, wave 150: 3.0M</title></circle><circle class="hit" cx="631.6" cy="319.6" r="6"><title>Cumulative income, wave 155: 3.1M</title></circle><circle class="hit" cx="650.0" cy="319.3" r="6"><title>Cumulative income, wave 160: 3.2M</title></circle><polyline class="s3" fill="none" stroke-width="2" stroke-linejoin="round" points="64.0,400.0 67.7,399.4 71.4,398.7 75.1,398.1 78.7,397.6 82.4,396.8 86.1,396.7 89.8,395.6 93.5,394.8 97.2,394.2 100.9,394.7 104.5,393.6 108.2,393.3 111.9,393.1 115.6,392.2 119.3,392.0 123.0,391.2 126.7,390.8 130.3,389.6 134.0,389.9 137.7,389.6 141.4,388.5 145.1,387.7 148.8,387.5 152.5,386.4 156.1,386.5 159.8,384.6 163.5,384.6 167.2,383.0 170.9,382.7 174.6,384.0 178.3,382.5 181.9,381.7 185.6,381.0 189.3,381.4 193.0,380.0 196.7,380.6 200.4,378.6 204.1,377.8 207.7,378.8 211.4,378.0 215.1,377.4 218.8,377.4 222.5,376.8 226.2,378.1 229.8,375.1 233.5,375.3 237.2,375.2 240.9,374.9 244.6,375.2 248.3,375.1 252.0,373.8 255.6,374.6 259.3,373.7 263.0,373.4 266.7,374.0 270.4,373.9 274.1,375.0 277.8,375.0 281.4,374.8 285.1,374.8 288.8,374.1 292.5,374.3 296.2,373.8 299.9,374.4 303.6,375.4 307.2,373.3 310.9,372.4 314.6,373.1 318.3,375.9 322.0,372.0 325.7,372.7 329.4,371.5 333.0,371.4 336.7,371.7 340.4,370.7 344.1,370.3 347.8,369.0 351.5,367.6 355.2,368.2 358.8,367.8 362.5,366.2 366.2,366.7 369.9,364.6 373.6,365.5 377.3,363.8 381.0,362.1 384.6,360.8 388.3,360.9 392.0,358.3 395.7,360.4 399.4,358.3 403.1,355.2 406.8,355.0 410.4,353.1 414.1,352.5 417.8,350.8 421.5,349.7 425.2,349.9 428.9,353.1 432.6,351.8 436.2,350.4 439.9,352.6 443.6,350.9 447.3,353.0 451.0,353.1 454.7,353.3 458.4,352.1 462.0,352.3 465.7,355.5 469.4,354.2 473.1,354.5 476.8,354.9 480.5,356.4 484.2,353.7 487.8,353.9 491.5,353.9 495.2,355.8 498.9,354.5 502.6,357.7 506.3,356.6 509.9,354.9 513.6,356.7 517.3,355.6 521.0,357.2 524.7,355.9 528.4,356.2 532.1,359.3 535.7,358.2 539.4,356.5 543.1,358.3 546.8,357.1 550.5,357.4 554.2,360.4 557.9,359.1 561.5,359.3 565.2,359.7 568.9,358.0 572.6,360.1 576.3,358.3 580.0,358.7 583.7,360.4 587.3,360.5 591.0,359.3 594.7,362.4 598.4,359.6 602.1,362.7 605.8,361.6 609.5,361.5 613.1,360.1 616.8,361.9 620.5,360.7 624.2,360.8 627.9,362.3 631.6,360.9 635.3,361.3 638.9,362.9 642.6,363.2 646.3,364.6 650.0,363.3"/><circle class="hit" cx="64.0" cy="400.0" r="6"><title>Pop income per wave, wave 1: 221</title></circle><circle class="hit" cx="78.7" cy="397.6" r="6"><title>Pop income per wave, wave 5: 291</title></circle><circle class="hit" cx="97.2" cy="394.2" r="6"><title>Pop income per wave, wave 10: 440</title></circle><circle class="hit" cx="115.6" cy="392.2" r="6"><title>Pop income per wave, wave 15: 557</title></circle><circle class="hit" cx="134.0" cy="389.9" r="6"><title>Pop income per wave, wave 20: 735</title></circle><circle class="hit" cx="152.5" cy="386.4" r="6"><title>Pop income per wave, wave 25: 1.1k</title></circle><circle class="hit" cx="170.9" cy="382.7" r="6"><title>Pop income per wave, wave 30: 1.7k</title></circle><circle class="hit" cx="189.3" cy="381.4" r="6"><title>Pop income per wave, wave 35: 2.0k</title></circle><circle class="hit" cx="207.7" cy="378.8" r="6"><title>Pop income per wave, wave 40: 2.7k</title></circle><circle class="hit" cx="226.2" cy="378.1" r="6"><title>Pop income per wave, wave 45: 3.0k</title></circle><circle class="hit" cx="244.6" cy="375.2" r="6"><title>Pop income per wave, wave 50: 4.2k</title></circle><circle class="hit" cx="263.0" cy="373.4" r="6"><title>Pop income per wave, wave 55: 5.2k</title></circle><circle class="hit" cx="281.4" cy="374.8" r="6"><title>Pop income per wave, wave 60: 4.4k</title></circle><circle class="hit" cx="299.9" cy="374.4" r="6"><title>Pop income per wave, wave 65: 4.6k</title></circle><circle class="hit" cx="318.3" cy="375.9" r="6"><title>Pop income per wave, wave 70: 3.9k</title></circle><circle class="hit" cx="336.7" cy="371.7" r="6"><title>Pop income per wave, wave 75: 6.4k</title></circle><circle class="hit" cx="355.2" cy="368.2" r="6"><title>Pop income per wave, wave 80: 9.6k</title></circle><circle class="hit" cx="373.6" cy="365.5" r="6"><title>Pop income per wave, wave 85: 13k</title></circle><circle class="hit" cx="392.0" cy="358.3" r="6"><title>Pop income per wave, wave 90: 31k</title></circle><circle class="hit" cx="410.4" cy="353.1" r="6"><title>Pop income per wave, wave 95: 58k</title></circle><circle class="hit" cx="428.9" cy="353.1" r="6"><title>Pop income per wave, wave 100: 58k</title></circle><circle class="hit" cx="447.3" cy="353.0" r="6"><title>Pop income per wave, wave 105: 58k</title></circle><circle class="hit" cx="465.7" cy="355.5" r="6"><title>Pop income per wave, wave 110: 44k</title></circle><circle class="hit" cx="484.2" cy="353.7" r="6"><title>Pop income per wave, wave 115: 54k</title></circle><circle class="hit" cx="502.6" cy="357.7" r="6"><title>Pop income per wave, wave 120: 34k</title></circle><circle class="hit" cx="521.0" cy="357.2" r="6"><title>Pop income per wave, wave 125: 36k</title></circle><circle class="hit" cx="539.4" cy="356.5" r="6"><title>Pop income per wave, wave 130: 39k</title></circle><circle class="hit" cx="557.9" cy="359.1" r="6"><title>Pop income per wave, wave 135: 28k</title></circle><circle class="hit" cx="576.3" cy="358.3" r="6"><title>Pop income per wave, wave 140: 31k</title></circle><circle class="hit" cx="594.7" cy="362.4" r="6"><title>Pop income per wave, wave 145: 19k</title></circle><circle class="hit" cx="613.1" cy="360.1" r="6"><title>Pop income per wave, wave 150: 25k</title></circle><circle class="hit" cx="631.6" cy="360.9" r="6"><title>Pop income per wave, wave 155: 23k</title></circle><circle class="hit" cx="650.0" cy="363.3" r="6"><title>Pop income per wave, wave 160: 17k</title></circle><polyline class="s4" fill="none" stroke-width="2" stroke-linejoin="round" stroke-dasharray="6 4" points="64.0,344.0 67.7,344.0 71.4,344.0 75.1,344.0 78.7,344.0 82.4,344.0 86.1,344.0 89.8,344.0 93.5,344.0 97.2,344.0 100.9,344.0 104.5,344.0 108.2,344.0 111.9,344.0 115.6,344.0 119.3,344.0 123.0,344.0 126.7,344.0 130.3,344.0 134.0,344.0 137.7,344.0 141.4,344.0 145.1,344.0 148.8,344.0 152.5,344.0 156.1,344.0 159.8,344.0 163.5,344.0 167.2,344.0 170.9,344.0 174.6,344.0 178.3,344.0 181.9,344.0 185.6,344.0 189.3,344.0 193.0,344.0 196.7,344.0 200.4,344.0 204.1,344.0 207.7,344.0 211.4,344.0 215.1,344.0 218.8,344.0 222.5,344.0 226.2,344.0 229.8,344.0 233.5,344.0 237.2,344.0 240.9,344.0 244.6,344.0 248.3,344.5 252.0,345.0 255.6,345.5 259.3,346.0 263.0,346.5 266.7,346.9 270.4,347.4 274.1,347.8 277.8,348.2 281.4,348.6 285.1,349.1 288.8,349.5 292.5,349.9 296.2,350.3 299.9,350.7 303.6,351.1 307.2,351.4 310.9,351.8 314.6,352.2 318.3,352.5 322.0,352.9 325.7,353.2 329.4,353.6 333.0,353.9 336.7,354.3 340.4,354.6 344.1,354.9 347.8,355.3 351.5,355.6 355.2,355.9 358.8,356.2 362.5,356.5 366.2,356.8 369.9,357.1 373.6,357.4 377.3,357.7 381.0,358.0 384.6,358.3 388.3,358.6 392.0,358.9 395.7,359.2 399.4,359.4 403.1,359.7 406.8,360.0 410.4,360.2 414.1,360.5 417.8,360.8 421.5,361.0 425.2,361.3 428.9,361.5 432.6,361.8 436.2,362.0 439.9,362.3 443.6,362.5 447.3,362.8 451.0,363.0 454.7,363.2 458.4,363.5 462.0,363.7 465.7,363.9 469.4,364.2 473.1,364.4 476.8,364.6 480.5,364.8 484.2,365.1 487.8,365.3 491.5,365.5 495.2,365.7 498.9,365.9 502.6,366.1 506.3,366.3 509.9,366.6 513.6,366.8 517.3,367.0 521.0,367.2 524.7,367.4 528.4,367.6 532.1,367.8 535.7,368.0 539.4,368.2 543.1,368.4 546.8,368.5 550.5,368.7 554.2,368.9 557.9,369.1 561.5,369.3 565.2,369.5 568.9,369.7 572.6,369.8 576.3,370.0 580.0,370.2 583.7,370.4 587.3,370.6 591.0,370.7 594.7,370.9 598.4,371.1 602.1,371.3 605.8,371.4 609.5,371.6 613.1,371.8 616.8,371.9 620.5,372.1 624.2,372.3 627.9,372.4 631.6,372.6 635.3,372.8 638.9,372.9 642.6,373.1 646.3,373.2 650.0,373.4"/><circle class="hit" cx="64.0" cy="344.0" r="6"><title>Max passive per wave, wave 1: 170k</title></circle><circle class="hit" cx="78.7" cy="344.0" r="6"><title>Max passive per wave, wave 5: 170k</title></circle><circle class="hit" cx="97.2" cy="344.0" r="6"><title>Max passive per wave, wave 10: 170k</title></circle><circle class="hit" cx="115.6" cy="344.0" r="6"><title>Max passive per wave, wave 15: 170k</title></circle><circle class="hit" cx="134.0" cy="344.0" r="6"><title>Max passive per wave, wave 20: 170k</title></circle><circle class="hit" cx="152.5" cy="344.0" r="6"><title>Max passive per wave, wave 25: 170k</title></circle><circle class="hit" cx="170.9" cy="344.0" r="6"><title>Max passive per wave, wave 30: 170k</title></circle><circle class="hit" cx="189.3" cy="344.0" r="6"><title>Max passive per wave, wave 35: 170k</title></circle><circle class="hit" cx="207.7" cy="344.0" r="6"><title>Max passive per wave, wave 40: 170k</title></circle><circle class="hit" cx="226.2" cy="344.0" r="6"><title>Max passive per wave, wave 45: 170k</title></circle><circle class="hit" cx="244.6" cy="344.0" r="6"><title>Max passive per wave, wave 50: 170k</title></circle><circle class="hit" cx="263.0" cy="346.5" r="6"><title>Max passive per wave, wave 55: 128k</title></circle><circle class="hit" cx="281.4" cy="348.6" r="6"><title>Max passive per wave, wave 60: 99k</title></circle><circle class="hit" cx="299.9" cy="350.7" r="6"><title>Max passive per wave, wave 65: 78k</title></circle><circle class="hit" cx="318.3" cy="352.5" r="6"><title>Max passive per wave, wave 70: 62k</title></circle><circle class="hit" cx="336.7" cy="354.3" r="6"><title>Max passive per wave, wave 75: 50k</title></circle><circle class="hit" cx="355.2" cy="355.9" r="6"><title>Max passive per wave, wave 80: 42k</title></circle><circle class="hit" cx="373.6" cy="357.4" r="6"><title>Max passive per wave, wave 85: 35k</title></circle><circle class="hit" cx="392.0" cy="358.9" r="6"><title>Max passive per wave, wave 90: 29k</title></circle><circle class="hit" cx="410.4" cy="360.2" r="6"><title>Max passive per wave, wave 95: 25k</title></circle><circle class="hit" cx="428.9" cy="361.5" r="6"><title>Max passive per wave, wave 100: 21k</title></circle><circle class="hit" cx="447.3" cy="362.8" r="6"><title>Max passive per wave, wave 105: 18k</title></circle><circle class="hit" cx="465.7" cy="363.9" r="6"><title>Max passive per wave, wave 110: 16k</title></circle><circle class="hit" cx="484.2" cy="365.1" r="6"><title>Max passive per wave, wave 115: 14k</title></circle><circle class="hit" cx="502.6" cy="366.1" r="6"><title>Max passive per wave, wave 120: 12k</title></circle><circle class="hit" cx="521.0" cy="367.2" r="6"><title>Max passive per wave, wave 125: 11k</title></circle><circle class="hit" cx="539.4" cy="368.2" r="6"><title>Max passive per wave, wave 130: 9.7k</title></circle><circle class="hit" cx="557.9" cy="369.1" r="6"><title>Max passive per wave, wave 135: 8.7k</title></circle><circle class="hit" cx="576.3" cy="370.0" r="6"><title>Max passive per wave, wave 140: 7.8k</title></circle><circle class="hit" cx="594.7" cy="370.9" r="6"><title>Max passive per wave, wave 145: 7.0k</title></circle><circle class="hit" cx="613.1" cy="371.8" r="6"><title>Max passive per wave, wave 150: 6.3k</title></circle><circle class="hit" cx="631.6" cy="372.6" r="6"><title>Max passive per wave, wave 155: 5.7k</title></circle><circle class="hit" cx="650.0" cy="373.4" r="6"><title>Max passive per wave, wave 160: 5.2k</title></circle><circle class="d1 ring" cx="650.0" cy="75.6" r="4" stroke-width="2"/><text class="t2" x="660.0" y="79.6" font-size="12" text-anchor="start">Threat budget B(w)</text><circle class="d2 ring" cx="650.0" cy="319.3" r="4" stroke-width="2"/><text class="t2" x="660.0" y="323.3" font-size="12" text-anchor="start">Cumulative income</text><circle class="d3 ring" cx="650.0" cy="363.3" r="4" stroke-width="2"/><text class="t2" x="660.0" y="367.3" font-size="12" text-anchor="start">Pop income per wave</text><circle class="d4 ring" cx="650.0" cy="373.4" r="4" stroke-width="2"/><text class="t2" x="660.0" y="382.3" font-size="12" text-anchor="start">Max passive per wave</text><circle class="d1 ring" cx="392.0" cy="335.2" r="4" stroke-width="2"/><text class="t1" x="384.0" y="323.2" font-size="11" text-anchor="end">wave 90: one wave outweighs all income ever earned</text>
</svg>
